<?xml version="1.0" encoding="utf-8"?>
<!-- Generator: Adobe Illustrator 25.4.1, SVG Export Plug-In . SVG Version: 6.00 Build 0)  -->
<svg version="1.1" id="Calque_1" xmlns="http://www.w3.org/2000/svg" xmlns:xlink="http://www.w3.org/1999/xlink" x="0px" y="0px"
	 viewBox="0 0 240.94 155.91" style="enable-background:new 0 0 240.94 155.91;" xml:space="preserve">
<style type="text/css">
	.st0{fill:#015479;}
	.st1{fill:#F18938;}
	.st2{fill:#F0822E;}
</style>
<g>
	<path class="st0" d="M161.57,77.62c0-4.47,0.01-8.5,0-12.53c-0.02-5.19-0.11-4.17,4.29-4.26c1.24-0.02,2.48,0.08,3.7-0.03
		c1.18-0.1,1.38,0.38,1.37,1.43c-0.05,6.08-0.03,12.16-0.02,18.24c0.01,3.71,0.06,7.41,0.07,11.12c0.01,1.9-0.23,2.11-2.14,2.1
		c-6.75-0.02-5.2,0.44-9.39-4.48c-3.04-3.57-6.01-7.21-9.01-10.81c-0.27-0.33-0.58-0.63-1.12-1.22c0,1.97,0.01,3.62,0,5.27
		c-0.02,3.26-0.07,6.52-0.06,9.78c0,1.08-0.44,1.5-1.52,1.48c-2.07-0.04-4.15-0.08-6.23,0.01c-1.38,0.06-1.87-0.54-1.84-1.82
		c0.06-2.81,0.13-5.63,0.12-8.44c-0.02-6.77-0.08-13.54-0.11-20.3c-0.01-2.26,0.04-2.3,2.31-2.31c6.86-0.03,4.88-0.75,9.12,4.23
		C154.55,69.08,157.89,73.18,161.57,77.62z"/>
	<path class="st0" d="M211.09,93.61c-3.05,0-5.91-0.02-8.78,0.01c-0.86,0.01-1.25-0.48-1.54-1.14c-0.52-1.22-1.09-2.44-1.51-3.7
		c-0.39-1.19-1.13-1.61-2.33-1.59c-3.21,0.05-6.43,0.09-9.64,0.03c-1.27-0.02-2.03,0.39-2.5,1.59c-2.29,5.77-1.13,4.76-7.24,4.87
		c-1.43,0.03-2.86,0-4.52,0c0.75-1.79,1.43-3.46,2.16-5.12c3.76-8.53,7.55-17.04,11.26-25.59c0.69-1.58,1.58-2.33,3.36-2.18
		c1.77,0.15,3.56,0.06,5.34,0.02c1-0.02,1.71,0.33,2.12,1.27c4.45,10.06,8.9,20.11,13.35,30.17
		C210.81,92.65,210.92,93.08,211.09,93.61z M192.05,70.79c-1.24,3.06-2.34,5.78-3.44,8.49c-0.2,0.5-0.2,0.84,0.51,0.84
		c2.15-0.02,4.31-0.01,6.66-0.01C194.53,76.98,193.35,74.04,192.05,70.79z"/>
	<path class="st0" d="M37.91,71.6c0-3.11,0.02-6.23-0.01-9.34c-0.01-1.02,0.26-1.53,1.43-1.5c5.92,0.14,11.85-0.17,17.77,0.3
		c7.05,0.56,12.48,5.07,14.17,11.9c1.76,7.1-0.82,14.03-6.54,17.64c-3.07,1.94-6.53,2.4-10.02,2.8c-0.44,0.05-0.88,0.13-1.32,0.18
		c-0.79,0.09-1.27-0.28-1.29-1.06c-0.04-1.87-0.04-3.75,0-5.62c0.02-0.97,0.72-1.16,1.54-1.18c2.13-0.05,4.13-0.57,5.72-2.07
		c2.9-2.72,3.27-6.07,2.12-9.67c-1.15-3.63-3.93-5.15-7.52-5.4c-1.72-0.12-3.46,0.04-5.18-0.05c-1.02-0.05-1.25,0.36-1.24,1.27
		c0.05,3.46,0.04,6.92,0.05,10.38c0.01,2.3-0.16,2.41-2.43,2.34c-1.83-0.06-3.66-0.09-5.48,0.01c-1.35,0.08-1.84-0.34-1.8-1.74
		C37.97,77.73,37.91,74.67,37.91,71.6z"/>
	<path class="st0" d="M117.36,60.42c7.04,0.07,12.89,2.63,16.18,9.03c5.37,10.45-0.42,23.45-13.65,24.84
		c-5.19,0.55-10.05-0.24-14.28-3.52c-5.29-4.1-7.34-9.6-6.28-16.09c1.09-6.67,5.07-11.08,11.46-13.29
		C112.92,60.66,115.11,60.36,117.36,60.42z M106.29,77.35c0,6.38,4.82,11.26,11.09,11.2c6.16-0.05,11.03-4.99,11.01-11.18
		c-0.02-6.2-4.9-11.01-11.14-10.99C111.02,66.41,106.28,71.15,106.29,77.35z"/>
	<path class="st0" d="M94.96,73.04c0,3.41,0.07,6.82-0.02,10.22c-0.16,6.18-3.6,10.05-9.76,10.84c-4.65,0.6-9.06-0.07-12.86-3.13
		c-1.52-1.23-1.57-1.63-0.33-3.1c1.11-1.32,2.28-2.6,3.36-3.95c0.54-0.68,0.93-0.69,1.48-0.03c1.2,1.45,2.92,2,4.65,2.38
		c2.31,0.5,3.81-0.76,3.88-3.21c0.08-2.72,0.02-5.43,0.02-8.15c0-1.73-0.07-3.46,0.02-5.19c0.06-1.09-0.34-1.32-1.35-1.29
		c-2.57,0.08-5.14,0.05-7.71,0.06c-1.74,0.01-2.07-0.36-2.01-2.09c0.05-1.28,0.13-2.57,0.03-3.85c-0.11-1.42,0.48-1.81,1.8-1.8
		c5.68,0.04,11.36,0.06,17.05-0.01c1.49-0.02,1.86,0.54,1.83,1.91c-0.07,3.46-0.02,6.92-0.02,10.37
		C95,73.04,94.98,73.04,94.96,73.04z"/>
	<path class="st1" d="M42.74,93.61c-1.18,0-2.37-0.05-3.55,0.02c-0.92,0.05-1.35-0.17-1.3-1.21c0.08-1.62,0.06-3.26,0.01-4.88
		c-0.03-0.85,0.16-1.24,1.13-1.22c2.47,0.06,4.93,0.04,7.4,0.01c0.79-0.01,1.17,0.15,1.14,1.05c-0.06,1.73-0.06,3.46,0,5.18
		c0.03,0.89-0.34,1.1-1.13,1.07C45.21,93.58,43.97,93.61,42.74,93.61z"/>
	<path class="st2" d="M106.29,77.35c0-6.2,4.74-10.95,10.95-10.97c6.25-0.02,11.13,4.79,11.14,10.99
		c0.02,6.19-4.84,11.13-11.01,11.18C111.11,88.61,106.29,83.74,106.29,77.35z"/>
</g>
<path class="st0" d="M57.24-19.55c0-2.8,0.01-5.33,0-7.86c-0.01-3.26-0.07-2.62,2.7-2.67c0.78-0.02,1.56,0.05,2.32-0.02
	c0.74-0.07,0.86,0.24,0.86,0.9c-0.03,3.81-0.02,7.63-0.01,11.44c0,2.33,0.04,4.65,0.04,6.98c0,1.19-0.15,1.32-1.34,1.32
	c-4.24-0.01-3.26,0.28-5.89-2.81c-1.91-2.24-3.77-4.52-5.66-6.79c-0.17-0.21-0.36-0.4-0.7-0.77c0,1.24,0,2.27,0,3.31
	c-0.01,2.05-0.04,4.09-0.04,6.14c0,0.68-0.28,0.94-0.95,0.93c-1.3-0.03-2.61-0.05-3.91,0.01c-0.87,0.04-1.17-0.34-1.16-1.14
	c0.04-1.77,0.08-3.53,0.08-5.3c-0.01-4.25-0.05-8.49-0.07-12.74c-0.01-1.42,0.03-1.45,1.45-1.45c4.3-0.02,3.06-0.47,5.73,2.66
	C52.84-24.91,54.93-22.33,57.24-19.55z"/>
<path class="st0" d="M88.32-9.51c-1.91,0-3.71-0.01-5.51,0.01c-0.54,0.01-0.79-0.3-0.96-0.72c-0.33-0.77-0.69-1.53-0.95-2.32
	c-0.25-0.74-0.71-1.01-1.46-1c-2.02,0.03-4.03,0.06-6.05,0.02c-0.8-0.02-1.27,0.25-1.57,1c-1.43,3.62-0.71,2.99-4.55,3.06
	c-0.9,0.02-1.8,0-2.83,0c0.47-1.12,0.9-2.17,1.35-3.21c2.36-5.35,4.74-10.69,7.07-16.06c0.43-0.99,0.99-1.46,2.11-1.37
	c1.11,0.09,2.23,0.04,3.35,0.01c0.63-0.01,1.07,0.21,1.33,0.8c2.79,6.31,5.59,12.62,8.38,18.93C88.14-10.12,88.21-9.85,88.32-9.51z
	 M76.37-23.83c-0.78,1.92-1.47,3.62-2.16,5.33c-0.13,0.31-0.12,0.53,0.32,0.52c1.35-0.01,2.7,0,4.18,0
	C77.92-19.95,77.19-21.79,76.37-23.83z"/>
<path class="st0" d="M29.5-30.34c4.41,0.04,8.09,1.65,10.15,5.67c3.37,6.56-0.26,14.71-8.57,15.59c-3.26,0.34-6.31-0.15-8.96-2.21
	c-3.32-2.57-4.6-6.02-3.94-10.1c0.68-4.18,3.18-6.95,7.19-8.34C26.71-30.19,28.09-30.38,29.5-30.34z M22.55-19.71
	c0,4.01,3.03,7.06,6.96,7.03c3.87-0.03,6.92-3.13,6.91-7.02c-0.01-3.89-3.07-6.91-6.99-6.9C25.52-26.58,22.55-23.6,22.55-19.71z"/>
<path class="st0" d="M15.44-22.42c0,2.14,0.05,4.28-0.01,6.41c-0.1,3.88-2.26,6.3-6.13,6.8c-2.92,0.38-5.69-0.05-8.07-1.97
	c-0.95-0.77-0.98-1.02-0.2-1.95c0.7-0.83,1.43-1.63,2.11-2.48c0.34-0.43,0.58-0.43,0.93-0.02c0.75,0.91,1.83,1.26,2.92,1.49
	c1.45,0.31,2.39-0.47,2.44-2.01c0.05-1.7,0.01-3.41,0.01-5.12c0-1.09-0.04-2.17,0.02-3.25c0.04-0.68-0.22-0.83-0.84-0.81
	C7-25.26,5.39-25.28,3.77-25.27c-1.09,0.01-1.3-0.23-1.26-1.31c0.03-0.8,0.08-1.62,0.02-2.42c-0.07-0.89,0.3-1.13,1.13-1.13
	c3.57,0.03,7.13,0.04,10.7-0.01c0.93-0.01,1.17,0.34,1.15,1.2c-0.05,2.17-0.02,4.34-0.02,6.51C15.47-22.42,15.46-22.42,15.44-22.42z
	"/>
<g>
	<path class="st0" d="M-60.35-23.32c0-1.95,0.01-3.91-0.01-5.86c-0.01-0.64,0.16-0.96,0.89-0.94c3.72,0.09,7.44-0.11,11.15,0.19
		c4.42,0.35,7.83,3.18,8.89,7.47c1.1,4.46-0.52,8.8-4.1,11.07c-1.93,1.22-4.1,1.51-6.29,1.76c-0.28,0.03-0.55,0.08-0.83,0.11
		c-0.49,0.06-0.8-0.18-0.81-0.66c-0.02-1.18-0.02-2.35,0-3.53c0.01-0.61,0.45-0.73,0.97-0.74c1.34-0.03,2.59-0.36,3.59-1.3
		c1.82-1.71,2.05-3.81,1.33-6.07c-0.72-2.28-2.47-3.23-4.72-3.39c-1.08-0.07-2.17,0.02-3.25-0.03c-0.64-0.03-0.78,0.22-0.78,0.8
		c0.03,2.17,0.03,4.34,0.03,6.51c0,1.44-0.1,1.51-1.52,1.47c-1.15-0.04-2.3-0.06-3.44,0.01c-0.85,0.05-1.15-0.22-1.13-1.09
		C-60.31-19.48-60.35-21.4-60.35-23.32z"/>
	<path class="st1" d="M-57.32-9.51c-0.74,0-1.49-0.03-2.23,0.01c-0.58,0.03-0.85-0.1-0.82-0.76c0.05-1.02,0.04-2.04,0-3.06
		c-0.02-0.53,0.1-0.78,0.71-0.76c1.55,0.04,3.1,0.03,4.64,0c0.49-0.01,0.74,0.1,0.72,0.66c-0.04,1.08-0.04,2.17,0,3.25
		C-54.27-9.62-54.5-9.49-55-9.5C-55.78-9.53-56.55-9.51-57.32-9.51z"/>
</g>
<path class="st2" d="M22.55-19.71c0-3.89,2.97-6.87,6.87-6.88c3.92-0.01,6.98,3.01,6.99,6.9c0.01,3.89-3.04,6.99-6.91,7.02
	C25.58-12.65,22.55-15.71,22.55-19.71z"/>
<rect x="166.94" y="-33.17" class="st0" width="44.15" height="12.07"/>
<path class="st0" d="M-379.87,164.48c0-4.49,0-8.6,0-12.72c0-6.33,0-12.66,0-18.99c0-3.21-1.62-5.16-4.28-5.2
	c-2.64-0.04-4.43,1.91-4.44,5.1c-0.05,9.42-0.03,18.85-0.04,28.27c0,1.09,0,2.18,0,3.36c-3.11,0-6.07,0.22-8.97-0.07
	c-2.42-0.25-4.59-3.11-4.61-5.92c-0.06-10.39-0.57-20.81,0.18-31.15c0.93-12.71,11.53-21.73,23.06-21.35
	c5.84,0.19,11.69-0.02,17.54,0.1c0.84,0.02,1.97,0.61,2.45,1.3c9.98,14.24,29.76,14.35,39.82,0.13c0.83-1.18,1.68-1.54,3.03-1.53
	c5.98,0.06,11.97,0.01,17.95,0.05c11.1,0.06,21.46,9.22,22.06,20.3c0.58,10.63,0.42,21.3,0.4,31.96c-0.01,3.81-2.84,6.26-6.69,6.35
	c-1.65,0.04-3.31-0.11-4.95,0.01c-1.65,0.13-2.12-0.45-2.1-2.09c0.07-9.91,0.09-19.81-0.02-29.72c-0.01-1.32-0.5-3.04-1.42-3.83
	c-0.97-0.84-2.9-1.36-4.05-0.96c-1.26,0.43-2.3,1.95-3.05,3.22c-0.46,0.79-0.22,2.01-0.23,3.04c-0.01,9.29-0.05,18.57,0.02,27.86
	c0.01,1.81-0.38,2.51-2.38,2.5c-16.37-0.12-32.74-0.15-49.11-0.16c-9.15-0.01-18.3,0.08-27.44,0.12
	C-377.93,164.48-378.74,164.48-379.87,164.48z"/>
<path class="st0" d="M-311.5,69.95c-5.52,13.56-19.06,23.84-34.51,19.55c-8.21-2.28-13.94-7.77-18.24-14.89
	c-1.06-1.76-1.99-3.62-2.77-5.52c-1.25-3.04-2.59-5.9-4.83-8.48c-3.66-4.23-4.75-9.41-3.35-14.9c1.1-4.32,2.3-8.62,3.73-12.83
	c0.69-2.04,1.81-4.04,3.13-5.74c2.02-2.61,4.8-3.28,7.74-1.75c2.08,1.08,4.03,2.63,5.64,4.34c2.6,2.79,5.03,3.04,7.64,0.17
	c6.14-6.75,13.67-10.09,22.83-9.05c7.97,0.91,14.82,4.41,20.72,9.77c0.48,0.44,0.54,1.41,0.67,2.15c0.07,0.38-0.08,0.82-0.2,1.21
	c-1.24,3.91-0.98,7.61,0.37,11.59c1.68,4.98,0.54,9.95-2.55,14.29c-0.44,0.62-1.37,1.2-2.1,1.23c-3.37,0.13-6.74,0.12-10.11,0
	c-0.61-0.02-1.48-0.6-1.77-1.16c-2.97-5.78-8.14-8.74-13.89-7.84c-5.36,0.84-10.17,5.86-10.84,11.32
	c-0.79,6.46,2.28,12.21,7.88,14.74c6.04,2.73,13.5-0.11,16.51-6.46c0.68-1.44,1.46-1.89,2.95-1.78
	C-315.14,70.05-313.42,69.95-311.5,69.95z"/>
<path class="st0" d="M-301.38,20.97c-18.6-12.79-37.09-11.43-49.53,0.02c-12.22-7.49-17.8-6.97-25.94,2.59
	c-1.08-6.75-1.55-13.36-0.78-19.99c0.4-3.45,1.14-6.93,2.24-10.22c2.9-8.61,9.42-12.53,18.18-12.97c10.17-0.5,19.69,2.41,29.02,6.03
	c3.77,1.47,7.44,3.19,11.21,4.67c1.18,0.46,2.53,0.7,3.8,0.71c5.35,0.06,8.73,2.5,10.51,7.55c2.19,6.19,2.03,12.56,1.63,18.96
	C-301.07,19.17-301.24,19.98-301.38,20.97z"/>
<path class="st0" d="M-278.22,35.14c-2.67-1.01-5.2-1.96-8-3.02c0-4.12,0-8.51,0-12.89c0-5.92,0-11.83,0-17.75
	c-0.01-24.66-15.68-43.61-39.96-48.12c-14.95-2.78-29.36-1.11-42.7,6.49c-13.06,7.44-20.63,18.86-22.26,33.76
	c-0.81,7.42-0.46,14.97-0.56,22.46c-0.07,5.42-0.01,10.85-0.01,16.07c-2.74,1.02-5.27,1.96-7.96,2.96c-0.02-0.32-0.07-0.76-0.07-1.2
	c0-11.21-0.14-22.43,0.04-33.64c0.25-15.89,5.5-29.76,17.51-40.6c8.55-7.72,18.73-12.19,29.98-14.17
	c16.72-2.94,32.8-1.11,47.58,7.68c14.6,8.67,23.3,21.64,25.52,38.44c0.99,7.51,0.56,15.22,0.71,22.84
	c0.12,6.25,0.13,12.51,0.18,18.77C-278.21,33.87-278.22,34.53-278.22,35.14z"/>
<path class="st0" d="M-296.01,61.04c2.86-6.42,3.24-12.86,1.18-19.59c3.09,0,5.97-0.13,8.83,0.04c2.32,0.14,4.38,2.18,4.67,5.05
	c0.32,3.18,0.33,6.45-0.08,9.61c-0.44,3.38-2.63,4.93-6.01,4.99c-2.54,0.05-5.08,0.02-7.62,0.01
	C-295.25,61.16-295.45,61.11-296.01,61.04z"/>
<path class="st0" d="M-383.31,41.66c-1.77,6.51-1.59,12.97,1.38,19.44c-3.52,0-6.8,0.18-10.05-0.06c-2.66-0.19-4.72-2.96-4.85-6.11
	c-0.1-2.47-0.09-4.95,0.01-7.43c0.15-3.71,2.69-6.09,6.36-6.1c2.2-0.01,4.4,0.02,6.6,0.04C-383.74,41.44-383.61,41.54-383.31,41.66z
	"/>
<path class="st0" d="M-325.31,97.17c0.28,5.46-3.79,10.3-10.46,11.63c-5.38,1.07-10.22-0.25-14.18-4.24
	c-2.16-2.17-3.43-4.62-2.69-7.39c4.57,0.69,9.14,1.92,13.71,1.92C-334.42,99.1-329.91,97.87-325.31,97.17z"/>
<path class="st0" d="M-327.19,65.59c-0.02,2.82-1.65,4.7-4.08,4.69c-2.46-0.01-4.28-1.93-4.31-4.56c-0.03-2.86,1.69-4.88,4.17-4.91
	C-328.85,60.78-327.17,62.68-327.19,65.59z"/>
<g>
	<path class="st0" d="M598.12-277.66c2.66,2.66,5.32,5.32,8.32,8.33c1.07-1.21,2.21-2.61,3.47-3.89c2.19-2.21,3.46-2.17,5.71,0.07
		c2.63,2.61,5.24,5.23,7.85,7.85c10.42,10.42,20.88,20.79,31.24,31.26c7.05,7.12,3.97,18.7-5.61,21.24
		c-4.41,1.17-8.48,0.17-11.72-3.04c-13.35-13.25-26.64-26.57-39.92-39.89c-1.83-1.83-1.77-3.22,0.01-5.08
		c0.68-0.71,1.36-1.41,2.09-2.08c0.66-0.61,1.38-1.17,1.92-1.61c-2.89-2.86-5.55-5.5-8.32-8.26
		c-17.92,15.69-39.09,22.31-63.12,18.42c-19.13-3.1-34.73-12.64-46.73-27.84c-23.88-30.22-21.17-74.94,9.14-102.55
		c27.38-24.93,71.81-25.12,99.67-0.44C623.02-357.79,627.21-309.4,598.12-277.66z M611.53-328.48c0.04-38.12-30.63-68.9-68.71-68.96
		c-38.15-0.06-69.21,30.52-69.26,68.18c-0.05,38.69,30.38,69.73,68.37,69.76C580.82-259.47,611.48-289.86,611.53-328.48z
		 M612.99-248.79c2.78,2.76,5.67,5.61,8.54,8.48c6.46,6.46,12.89,12.96,19.37,19.4c2.78,2.76,6.29,3.14,8.99,1.1
		c3.24-2.45,3.44-6.95,0.32-10.1c-6.54-6.6-13.13-13.14-19.7-19.71c-2.82-2.82-5.63-5.63-8.35-8.36
		C619.06-254.88,616.09-251.9,612.99-248.79z M617.15-262.43c-1.44-1.58-2.94-3.23-4.27-4.69c-3.09,3.02-6.08,5.94-8.96,8.75
		c1.5,1.6,3.01,3.22,4.41,4.73C611.38-256.69,614.35-259.64,617.15-262.43z"/>
	<path class="st0" d="M552.92-282.65c2.8,7.63-1.32,13.48-9.21,13.49c-1.59,0-3.17,0.04-4.76-0.01c-6.35-0.22-10.48-5.96-8.54-11.97
		c0.37-1.13,0.23-1.72-0.62-2.5c-2.13-1.94-2.91-4.43-2.9-7.32c0.02-3.31,0.11-6.68-0.43-9.93c-0.89-5.35-4.09-9.38-8.07-12.99
		c-11.03-9.98-14.9-22.49-10.93-36.7c4-14.33,13.93-23.17,28.62-25.76c21.74-3.84,41.54,12.93,41.8,35.01
		c0.14,11.44-4.44,20.78-13.06,28.16c-5.19,4.45-7.81,10.03-7.83,16.85c-0.01,1.28-0.07,2.57,0.01,3.85
		C557.25-288.54,556.31-285.12,552.92-282.65z M550.97-299.32c0.72-8.2,5.14-14.33,11.17-19.84c8.05-7.35,11.07-16.75,9.01-27.52
		c-2.45-12.8-13.18-22.58-25.95-23.94c-13.15-1.4-25.57,5.94-30.72,18.16c-5.07,12.02-1.61,26.06,8.48,34.48
		c4.54,3.78,7.65,8.5,9.17,14.22c0.42,1.58,0.73,3.19,1.01,4.45c3.04,0,5.9,0,8.76,0C544.81-299.32,547.74-299.32,550.97-299.32z
		 M542.04-293.14c-1.88,0-3.77-0.04-5.65,0.01c-2.06,0.05-3.29,1.19-3.29,2.93c0,1.74,1.2,2.88,3.3,2.92
		c3.69,0.06,7.39,0.05,11.08,0.01c1.88-0.02,3.22-0.83,3.26-2.94c0.03-1.8-1.13-2.85-3.27-2.91
		C545.65-293.18,543.84-293.14,542.04-293.14z M541.88-275.38C541.88-275.39,541.88-275.39,541.88-275.38
		c1.13-0.01,2.44,0.35,3.34-0.1c1.04-0.52,2.19-1.63,2.46-2.69c0.36-1.39-0.64-2.72-2.23-2.83c-2.32-0.16-4.67-0.15-6.99,0.01
		c-1.55,0.1-2.39,1.19-2.37,2.78c0.03,1.69,0.95,2.67,2.62,2.82C539.77-275.31,540.83-275.38,541.88-275.38z"/>
	<path class="st0" d="M601.75-332.05c0.98,0,1.96-0.06,2.93,0.01c1.81,0.12,2.97,1.05,3.06,2.94c0.09,1.92-1.12,3.01-2.83,3.18
		c-2.08,0.21-4.22,0.18-6.31-0.01c-1.78-0.15-2.98-1.36-2.88-3.16c0.1-1.74,1.22-2.88,3.1-2.95
		C599.79-332.08,600.77-332.05,601.75-332.05z"/>
	<path class="st0" d="M545.1-388.7c0,0.98,0.08,1.96-0.02,2.93c-0.18,1.89-1.57,3.17-3.28,3c-1.84-0.18-2.84-1.28-2.88-3.13
		c-0.04-1.95-0.06-3.91,0.01-5.86c0.06-1.75,1.07-2.82,2.78-2.98c1.88-0.18,3,0.92,3.32,2.67c0.2,1.09,0.04,2.25,0.04,3.37
		C545.08-388.7,545.09-388.7,545.1-388.7z"/>
	<path class="st0" d="M482.07-325.89c-1.05,0-2.13,0.15-3.15-0.04c-1.75-0.32-2.85-1.42-2.7-3.3c0.14-1.73,1.22-2.74,2.96-2.8
		c2.03-0.08,4.06-0.09,6.09,0.01c1.73,0.08,2.8,1.09,2.92,2.84c0.12,1.89-0.99,2.97-2.74,3.26
		C484.35-325.74,483.2-325.89,482.07-325.89z"/>
	<path class="st0" d="M497.43-376.69c0.97,0.52,1.73,0.75,2.25,1.23c1.5,1.38,2.94,2.81,4.32,4.31c1.28,1.39,1.22,2.94-0.11,4.22
		c-1.25,1.21-2.77,1.22-4.07,0.05c-1.56-1.41-3.18-2.83-4.42-4.51c-0.58-0.79-0.73-2.32-0.38-3.25
		C495.34-375.5,496.59-376.02,497.43-376.69z"/>
	<path class="st0" d="M586.17-376.38c2.33,0.02,4.07,2.6,2.79,4.34c-1.53,2.09-3.48,3.96-5.55,5.53c-0.66,0.5-2.6,0.09-3.36-0.58
		c-0.67-0.59-1.09-2.58-0.62-3.16c1.72-2.14,3.83-3.96,5.84-5.86C585.49-376.33,585.95-376.32,586.17-376.38z"/>
	<path class="st0" d="M538.92-325.55c0.42-6.38,3.53-12.63,8.93-17.79c2.71-2.59,3.59-5.72,2.51-9.28c-1.06-3.51-3.6-5.48-7.16-6.12
		c-5-0.9-9.52,2.88-10.21,8.48c-0.29,2.41-1.69,3.69-3.63,3.23c-1.97-0.46-2.55-1.89-2.46-3.76c0.36-7.44,6.23-13.41,13.95-14.18
		c6.94-0.69,14.02,4.46,15.63,11.44c1.24,5.33,0.03,10.14-3.85,13.96c-4.61,4.55-7.49,9.73-7.66,16.32
		c-0.05,2.06-1.6,3.41-3.31,3.26C539.81-320.15,538.87-321.66,538.92-325.55z"/>
	<path class="st0" d="M545.18-309.65c-0.07,0.75-0.03,1.53-0.23,2.24c-0.44,1.53-1.51,2.54-3.14,2.39
		c-1.68-0.15-2.75-1.19-2.87-2.96c-0.06-0.9-0.01-1.81-0.01-2.72c0-1.96,0.91-3.18,2.9-3.36c1.81-0.17,3.11,1.18,3.28,3.27
		c0.03,0.38,0,0.75,0,1.13C545.13-309.66,545.16-309.66,545.18-309.65z"/>
</g>
<rect x="353.82" y="111.19" class="st0" width="146.47" height="71.59"/>
</svg>
